<svg version="1.0" xmlns="http://www.w3.org/2000/svg"
 width="190.000000pt" height="190.000000pt" viewBox="0 0 190.000000 190.000000"
 preserveAspectRatio="xMidYMid meet">

<g transform="translate(0.000000,190.000000) scale(0.100000,-0.100000)"
fill="#000000" stroke="none">
<path d="M0 950 l0 -950 950 0 950 0 0 950 0 950 -950 0 -950 0 0 -950z m1438
886 c109 -29 157 -78 156 -155 -1 -96 -101 -209 -247 -281 -113 -55 -193 -75
-307 -75 -83 0 -102 3 -144 25 -61 31 -87 65 -93 122 -15 129 168 290 402 354
94 26 160 29 233 10z m-1292 -152 c-50 -131 -14 -249 92 -297 66 -30 180 -30
239 1 100 52 130 166 78 295 -6 14 -2 17 28 17 30 0 37 -5 48 -32 8 -19 14
-68 14 -118 0 -72 -4 -92 -25 -130 -30 -53 -96 -105 -152 -121 -60 -16 -170
-13 -227 6 -63 21 -133 82 -162 142 -24 50 -31 144 -16 216 8 35 10 37 49 37
33 0 39 -3 34 -16z m1471 -385 c70 -6 152 -14 181 -17 l53 -7 -88 -65 c-159
-118 -263 -238 -342 -396 -90 -180 -121 -317 -128 -573 l-6 -194 -216 8 c-119
4 -218 9 -221 12 -2 2 -6 251 -8 552 l-4 549 78 30 c111 42 269 79 454 106 51
7 122 6 247 -5z m-977 -284 l0 -35 -290 0 -290 0 0 35 0 35 290 0 290 0 0 -35z
m-510 -325 l0 -80 255 0 255 0 0 -40 0 -40 -255 0 -255 0 0 -81 0 -80 -32 3
-33 3 -3 185 c-1 101 0 190 2 197 3 7 19 13 36 13 l30 0 0 -80z m510 -565 l0
-35 -290 0 -290 0 0 35 0 35 290 0 290 0 0 -35z"/>
<path d="M1231 1799 c-25 -5 -67 -16 -94 -25 -58 -19 -48 -34 24 -34 112 0
215 -36 226 -78 10 -40 -23 -87 -129 -185 -54 -50 -96 -93 -93 -95 7 -7 119
30 179 60 141 71 206 143 206 231 0 51 -30 96 -81 122 -31 17 -164 19 -238 4z"/>
<path d="M1460 1233 c-176 -17 -279 -46 -440 -122 -84 -40 -84 -40 -40 -36
130 13 297 16 324 6 34 -13 33 -19 -18 -141 -19 -47 -42 -112 -50 -145 -42
-167 -60 -545 -26 -545 5 0 11 26 15 58 26 254 61 391 135 536 53 104 112 185
210 291 44 48 78 91 75 96 -6 8 -108 10 -185 2z"/>
</g>
</svg>
